<?xml version="1.0" standalone="no"?>
<!DOCTYPE svg PUBLIC "-//W3C//DTD SVG 20010904//EN"
 "http://www.w3.org/TR/2001/REC-SVG-20010904/DTD/svg10.dtd">
<svg version="1.0" xmlns="http://www.w3.org/2000/svg"
 width="977.000000pt" height="624.000000pt" viewBox="0 0 977.000000 624.000000"
 preserveAspectRatio="xMidYMid meet">
<metadata>
Created by potrace 1.16, written by Peter Selinger 2001-2019
</metadata>
<g transform="translate(0.000000,624.000000) scale(0.100000,-0.100000)"
fill="#000000" stroke="none">
<path d="M0 3120 l0 -3120 4885 0 4885 0 0 3120 0 3120 -4885 0 -4885 0 0
-3120z m2450 207 l0 -303 -296 -287 c-162 -158 -302 -287 -310 -287 -12 0 -14
46 -13 293 l0 292 307 297 c169 164 308 297 310 298 1 0 2 -136 2 -303z m680
-588 c0 -256 -2 -289 -16 -289 -8 0 -148 129 -310 286 l-294 287 0 304 0 305
310 -302 310 -303 0 -288z m417 838 c12 -6 119 -136 238 -287 120 -151 218
-276 218 -277 1 -1 2 128 2 285 l0 287 93 3 92 3 0 -461 0 -460 -71 0 c-71 0
-72 0 -113 43 -22 23 -128 152 -233 286 l-193 244 0 -286 0 -287 -95 0 -95 0
0 460 0 460 68 0 c37 0 77 -6 89 -13z m2476 2 c96 -15 172 -51 202 -97 78
-120 44 -262 -78 -324 l-28 -14 42 -14 c78 -26 129 -99 129 -185 0 -83 -55
-180 -127 -222 -77 -45 -131 -53 -365 -53 l-218 0 0 460 0 460 186 0 c102 0
218 -5 257 -11z m-713 -164 l0 -95 80 0 80 0 0 -65 0 -65 -80 0 -80 0 0 -180
c0 -173 1 -180 21 -191 14 -7 29 -8 43 -2 11 6 27 8 34 6 14 -5 72 -87 72
-102 0 -20 -84 -54 -147 -59 -109 -8 -188 38 -213 126 -5 20 -10 119 -10 220
l0 182 -39 0 c-44 0 -51 10 -51 74 l0 42 52 10 52 9 21 80 c11 44 24 86 28 93
5 7 32 12 73 12 l64 0 0 -95z m-520 -116 c70 -33 106 -69 140 -142 35 -72 44
-147 30 -229 -32 -175 -166 -279 -344 -265 -93 7 -136 21 -188 60 -88 67 -132
170 -126 292 7 129 64 227 162 277 65 33 86 37 181 35 73 -2 100 -7 145 -28z
m1800 -209 l0 -231 25 -24 c30 -31 74 -32 132 -4 l43 21 0 234 0 234 100 0
100 0 0 -325 0 -326 -77 3 c-77 3 -78 3 -94 36 -14 27 -18 30 -29 18 -6 -8
-35 -26 -63 -41 -113 -56 -242 -20 -301 85 l-31 55 -3 248 -4 247 101 0 101 0
0 -230z m709 165 c13 -33 46 -118 72 -190 55 -150 40 -160 121 77 27 81 55
154 62 163 9 13 28 15 103 13 l92 -3 -173 -409 c-96 -224 -181 -417 -190 -427
-13 -16 -30 -19 -101 -19 -47 0 -85 3 -85 7 0 4 27 64 61 133 l60 126 -104
240 c-58 131 -116 265 -130 297 l-26 58 107 -3 107 -3 24 -60z"/>
<path d="M2127 3217 l-228 -222 3 -198 3 -199 232 224 231 223 1 198 c1 108
-2 197 -6 197 -5 -1 -111 -101 -236 -223z"/>
<path d="M2580 3246 l0 -193 235 -228 235 -227 0 205 0 206 -220 206 c-120
113 -222 210 -225 215 -20 32 -25 -7 -25 -184z"/>
<path d="M5790 3314 l0 -117 93 5 c135 7 166 29 167 113 0 90 -39 115 -182
115 l-78 0 0 -116z"/>
<path d="M5790 2945 l0 -117 108 4 c124 4 155 18 173 77 14 49 1 99 -35 125
-23 18 -45 22 -137 24 l-109 4 0 -117z"/>
<path d="M4580 3172 c-19 -9 -42 -31 -52 -47 -43 -74 -30 -234 22 -287 23 -23
37 -28 77 -28 100 0 134 47 134 183 0 102 -17 149 -63 177 -41 25 -72 25 -118
2z"/>
</g>
</svg>
